<?xml version="1.0" encoding="UTF-8"?>
<svg xmlns="http://www.w3.org/2000/svg" xmlns:xlink="http://www.w3.org/1999/xlink" viewBox="0 0 26 26" width="26px" height="26px">
<g id="surface38675942">
<rect x="0" y="0" width="26" height="26" style="fill:rgb(100%,100%,100%);fill-opacity:1;stroke:none;"/>
<path style=" stroke:none;fill-rule:nonzero;fill:rgb(100%,100%,100%);fill-opacity:1;" d="M 1.949219 26 C 0.871094 26 0 25.128906 0 24.050781 L 0 1.949219 C 0 0.871094 0.871094 0 1.949219 0 L 24.050781 0 C 25.128906 0 26 0.871094 26 1.949219 L 26 24.050781 C 26 25.128906 25.128906 26 24.050781 26 Z M 1.949219 26 "/>
<path style=" stroke:none;fill-rule:nonzero;fill:rgb(98.431373%,75.294119%,17.647059%);fill-opacity:1;" d="M 23.621094 10.878906 L 22.75 10.878906 L 22.75 10.832031 L 13 10.832031 L 13 15.167969 L 19.121094 15.167969 C 18.230469 17.6875 15.828125 19.5 13 19.5 C 9.410156 19.5 6.5 16.589844 6.5 13 C 6.5 9.410156 9.410156 6.5 13 6.5 C 14.65625 6.5 16.164062 7.125 17.3125 8.144531 L 20.375 5.082031 C 18.441406 3.277344 15.851562 2.167969 13 2.167969 C 7.015625 2.167969 2.167969 7.015625 2.167969 13 C 2.167969 18.984375 7.015625 23.832031 13 23.832031 C 18.984375 23.832031 23.832031 18.984375 23.832031 13 C 23.832031 12.273438 23.757812 11.566406 23.621094 10.878906 Z M 23.621094 10.878906 "/>
<path style=" stroke:none;fill-rule:nonzero;fill:rgb(89.803922%,22.352941%,20.784314%);fill-opacity:1;" d="M 3.414062 7.957031 L 6.976562 10.566406 C 7.9375 8.183594 10.269531 6.5 13 6.5 C 14.65625 6.5 16.164062 7.125 17.3125 8.144531 L 20.375 5.082031 C 18.441406 3.277344 15.851562 2.167969 13 2.167969 C 8.839844 2.167969 5.230469 4.515625 3.414062 7.957031 Z M 3.414062 7.957031 "/>
<path style=" stroke:none;fill-rule:nonzero;fill:rgb(29.803923%,68.627453%,31.37255%);fill-opacity:1;" d="M 13 23.832031 C 15.796875 23.832031 18.339844 22.761719 20.261719 21.019531 L 16.910156 18.183594 C 15.824219 19.007812 14.46875 19.5 13 19.5 C 10.183594 19.5 7.789062 17.703125 6.886719 15.195312 L 3.355469 17.917969 C 5.148438 21.425781 8.789062 23.832031 13 23.832031 Z M 13 23.832031 "/>
<path style=" stroke:none;fill-rule:nonzero;fill:rgb(8.235294%,39.607844%,75.294119%);fill-opacity:1;" d="M 23.621094 10.878906 L 23.613281 10.832031 L 13 10.832031 L 13 15.167969 L 19.121094 15.167969 C 18.695312 16.378906 17.914062 17.421875 16.910156 18.183594 L 20.261719 21.019531 C 20.027344 21.234375 23.832031 18.417969 23.832031 13 C 23.832031 12.273438 23.757812 11.566406 23.621094 10.878906 Z M 23.621094 10.878906 "/>
</g>
</svg>
